<svg width="31" height="31" viewBox="0 0 31 31" fill="none" xmlns="http://www.w3.org/2000/svg">
<path d="M15.5001 0.0999756C7.00319 0.0999756 0.100098 7.00307 0.100098 15.5C0.100098 23.2134 5.78937 29.5968 13.1991 30.7099L14.003 30.8316V18.6965H10.3649V16.2328H14.003V12.9611C14.003 10.9465 14.4865 9.61957 15.2868 8.78708C16.0872 7.9546 17.2697 7.53474 18.9153 7.53474C20.2312 7.53474 20.7431 7.61447 21.23 7.67419V9.6908H19.5169C18.5449 9.6908 17.7474 10.2331 17.3335 10.9554C16.9196 11.6778 16.7907 12.5402 16.7907 13.4191V16.2314H21.0769L20.6954 18.6951H16.7907V30.8508L17.5851 30.7427C25.1001 29.7235 30.9001 23.2888 30.9001 15.5C30.9001 7.00307 23.997 0.0999756 15.5001 0.0999756ZM15.5001 1.49998C23.2404 1.49998 29.5001 7.75968 29.5001 15.5C29.5001 22.3108 24.6252 27.9122 18.1907 29.1732V20.0951H21.8958L22.7093 14.8314H18.1907V13.4191C18.1907 12.6929 18.3236 12.0422 18.5476 11.6513C18.7715 11.2605 18.9874 11.0908 19.5169 11.0908H22.63V6.40681L22.023 6.32478C21.6031 6.26797 20.6445 6.13474 18.9153 6.13474C17.0232 6.13474 15.399 6.65019 14.2778 7.81638C13.1567 8.98257 12.603 10.7191 12.603 12.9611V14.8328H8.96494V20.0965H12.603V29.1295C6.27199 27.7883 1.5001 22.2371 1.5001 15.5C1.5001 7.75968 7.7598 1.49998 15.5001 1.49998Z" fill="white"/>
</svg>
