<?xml version="1.0" encoding="UTF-8"?>
<svg id="Calque_2" xmlns="http://www.w3.org/2000/svg" viewBox="0 0 93.54 93.54">
  <defs>
    <style>
      .cls-1 {
        fill: #f7f7f7;
      }
    </style>
  </defs>
  <g id="Calque_1-2" data-name="Calque_1">
    <circle class="cls-1" cx="72.23" cy="16.98" r="4.36"/>
    <path class="cls-1" d="M46.87,22.08c-13.08,0-23.69,10.61-23.69,23.69s10.61,23.7,23.69,23.7,23.69-10.62,23.69-23.7-10.59-23.69-23.69-23.69ZM46.87,66.12c-11.24,0-20.35-9.12-20.35-20.35s9.11-20.36,20.35-20.36,20.35,9.12,20.35,20.36-9.1,20.35-20.35,20.35Z"/>
    <path class="cls-1" d="M62.97,0H30.57C13.68,0,0,13.69,0,30.57v32.41c0,16.88,13.68,30.56,30.57,30.56h32.4c16.88,0,30.57-13.68,30.57-30.56V30.57c0-16.88-13.69-30.57-30.57-30.57ZM31.94,89.58c-15.47,0-27.99-12.52-27.99-27.97v-29.67C3.95,16.48,16.47,3.96,31.94,3.96h29.66c15.45,0,27.98,12.52,27.98,27.98v29.67c0,15.45-12.53,27.97-27.98,27.97h-29.66Z"/>
  </g>
</svg>